<svg width="239" height="239" viewBox="0 0 239 239" fill="none" xmlns="http://www.w3.org/2000/svg">
<g filter="url(#filter0_d_202_28)">
<path d="M103.25 139C102.388 139 101.561 138.658 100.952 138.048C100.342 137.439 100 136.612 100 135.75V122.75C100 121.888 100.342 121.061 100.952 120.452C101.561 119.842 102.388 119.5 103.25 119.5C104.112 119.5 104.939 119.842 105.548 120.452C106.158 121.061 106.5 121.888 106.5 122.75V135.75C106.5 136.612 106.158 137.439 105.548 138.048C104.939 138.658 104.112 139 103.25 139ZM119.5 139C118.638 139 117.811 138.658 117.202 138.048C116.592 137.439 116.25 136.612 116.25 135.75V103.25C116.25 102.388 116.592 101.561 117.202 100.952C117.811 100.342 118.638 100 119.5 100C120.362 100 121.189 100.342 121.798 100.952C122.408 101.561 122.75 102.388 122.75 103.25V135.75C122.75 136.612 122.408 137.439 121.798 138.048C121.189 138.658 120.362 139 119.5 139ZM135.75 139C134.888 139 134.061 138.658 133.452 138.048C132.842 137.439 132.5 136.612 132.5 135.75V116.25C132.5 115.388 132.842 114.561 133.452 113.952C134.061 113.342 134.888 113 135.75 113C136.612 113 137.439 113.342 138.048 113.952C138.658 114.561 139 115.388 139 116.25V135.75C139 136.612 138.658 137.439 138.048 138.048C137.439 138.658 136.612 139 135.75 139Z" fill="url(#paint0_linear_202_28)"/>
</g>
<g filter="url(#filter1_bii_202_28)">
<path d="M142.25 87H96.75C94.1641 87 91.6842 88.0272 89.8557 89.8557C88.0272 91.6842 87 94.1641 87 96.75V142.25C87 144.836 88.0272 147.316 89.8557 149.144C91.6842 150.973 94.1641 152 96.75 152H142.25C144.836 152 147.316 150.973 149.144 149.144C150.973 147.316 152 144.836 152 142.25V96.75C152 94.1641 150.973 91.6842 149.144 89.8557C147.316 88.0272 144.836 87 142.25 87ZM106.5 135.75C106.5 136.612 106.158 137.439 105.548 138.048C104.939 138.658 104.112 139 103.25 139C102.388 139 101.561 138.658 100.952 138.048C100.342 137.439 100 136.612 100 135.75V122.75C100 121.888 100.342 121.061 100.952 120.452C101.561 119.842 102.388 119.5 103.25 119.5C104.112 119.5 104.939 119.842 105.548 120.452C106.158 121.061 106.5 121.888 106.5 122.75V135.75ZM122.75 135.75C122.75 136.612 122.408 137.439 121.798 138.048C121.189 138.658 120.362 139 119.5 139C118.638 139 117.811 138.658 117.202 138.048C116.592 137.439 116.25 136.612 116.25 135.75V103.25C116.25 102.388 116.592 101.561 117.202 100.952C117.811 100.342 118.638 100 119.5 100C120.362 100 121.189 100.342 121.798 100.952C122.408 101.561 122.75 102.388 122.75 103.25V135.75ZM139 135.75C139 136.612 138.658 137.439 138.048 138.048C137.439 138.658 136.612 139 135.75 139C134.888 139 134.061 138.658 133.452 138.048C132.842 137.439 132.5 136.612 132.5 135.75V116.25C132.5 115.388 132.842 114.561 133.452 113.952C134.061 113.342 134.888 113 135.75 113C136.612 113 137.439 113.342 138.048 113.952C138.658 114.561 139 115.388 139 116.25V135.75Z" fill="url(#paint1_linear_202_28)" fill-opacity="0.33"/>
</g>
<defs>
<filter id="filter0_d_202_28" x="0" y="0" width="239" height="239" filterUnits="userSpaceOnUse" color-interpolation-filters="sRGB">
<feFlood flood-opacity="0" result="BackgroundImageFix"/>
<feColorMatrix in="SourceAlpha" type="matrix" values="0 0 0 0 0 0 0 0 0 0 0 0 0 0 0 0 0 0 127 0" result="hardAlpha"/>
<feOffset/>
<feGaussianBlur stdDeviation="50"/>
<feComposite in2="hardAlpha" operator="out"/>
<feColorMatrix type="matrix" values="0 0 0 0 0.12549 0 0 0 0 0.447059 0 0 0 0 0.996078 0 0 0 0.2 0"/>
<feBlend mode="normal" in2="BackgroundImageFix" result="effect1_dropShadow_202_28"/>
<feBlend mode="normal" in="SourceGraphic" in2="effect1_dropShadow_202_28" result="shape"/>
</filter>
<filter id="filter1_bii_202_28" x="74" y="74" width="91" height="91" filterUnits="userSpaceOnUse" color-interpolation-filters="sRGB">
<feFlood flood-opacity="0" result="BackgroundImageFix"/>
<feGaussianBlur in="BackgroundImageFix" stdDeviation="6.5"/>
<feComposite in2="SourceAlpha" operator="in" result="effect1_backgroundBlur_202_28"/>
<feBlend mode="normal" in="SourceGraphic" in2="effect1_backgroundBlur_202_28" result="shape"/>
<feColorMatrix in="SourceAlpha" type="matrix" values="0 0 0 0 0 0 0 0 0 0 0 0 0 0 0 0 0 0 127 0" result="hardAlpha"/>
<feOffset dy="-13"/>
<feGaussianBlur stdDeviation="6.5"/>
<feComposite in2="hardAlpha" operator="arithmetic" k2="-1" k3="1"/>
<feColorMatrix type="matrix" values="0 0 0 0 1 0 0 0 0 1 0 0 0 0 1 0 0 0 0.02 0"/>
<feBlend mode="normal" in2="shape" result="effect2_innerShadow_202_28"/>
<feColorMatrix in="SourceAlpha" type="matrix" values="0 0 0 0 0 0 0 0 0 0 0 0 0 0 0 0 0 0 127 0" result="hardAlpha"/>
<feOffset dx="-13" dy="-13"/>
<feGaussianBlur stdDeviation="11"/>
<feComposite in2="hardAlpha" operator="arithmetic" k2="-1" k3="1"/>
<feColorMatrix type="matrix" values="0 0 0 0 1 0 0 0 0 1 0 0 0 0 1 0 0 0 0.01 0"/>
<feBlend mode="normal" in2="effect2_innerShadow_202_28" result="effect3_innerShadow_202_28"/>
</filter>
<linearGradient id="paint0_linear_202_28" x1="119.5" y1="100" x2="119.5" y2="139" gradientUnits="userSpaceOnUse">
<stop stop-color="#002E7D"/>
<stop offset="1" stop-color="#00B6FF"/>
</linearGradient>
<linearGradient id="paint1_linear_202_28" x1="119.5" y1="87" x2="119.5" y2="152" gradientUnits="userSpaceOnUse">
<stop/>
<stop offset="1" stop-opacity="0.58"/>
</linearGradient>
</defs>
</svg>
