<svg width="88" height="73" viewBox="0 0 88 73" fill="none" xmlns="http://www.w3.org/2000/svg">
<path d="M30.4701 9.16455C15.4349 9.16455 3.24173 21.3625 3.24173 36.4037C3.24173 40.8527 4.31672 45.066 6.21638 48.7784L0.31125 59.7831C-0.763749 61.7866 1.12118 64.0848 3.2859 63.4366L16.127 59.5769C20.2944 62.1697 25.1982 63.6576 30.4701 63.6576C45.5054 63.6576 57.6985 51.4596 57.6985 36.4184C57.6985 21.3625 45.5054 9.16455 30.4701 9.16455Z" fill="url(#paint0_linear_94_21)"/>
<g filter="url(#filter0_b_94_21)">
<path d="M60.3281 64.0983C75.6109 59.2601 84.0783 42.9502 79.2406 27.669C74.403 12.3878 58.0921 3.92206 42.8093 8.76023C27.5266 13.5984 19.0591 29.9084 23.8968 45.1895C28.7345 60.4707 45.0453 68.9365 60.3281 64.0983Z" fill="url(#paint1_linear_94_21)" fill-opacity="0.33"/>
</g>
<circle cx="38.7299" cy="36.4294" r="3.61694" fill="url(#paint2_linear_94_21)"/>
<circle cx="51.5684" cy="36.4294" r="3.61694" fill="url(#paint3_linear_94_21)"/>
<circle cx="64.407" cy="36.4294" r="3.61694" fill="url(#paint4_linear_94_21)"/>
<defs>
<filter id="filter0_b_94_21" x="5.12355" y="-10.0133" width="92.8903" height="92.8854" filterUnits="userSpaceOnUse" color-interpolation-filters="sRGB">
<feFlood flood-opacity="0" result="BackgroundImageFix"/>
<feGaussianBlur in="BackgroundImageFix" stdDeviation="8.70609"/>
<feComposite in2="SourceAlpha" operator="in" result="effect1_backgroundBlur_94_21"/>
<feBlend mode="normal" in="SourceGraphic" in2="effect1_backgroundBlur_94_21" result="shape"/>
</filter>
<linearGradient id="paint0_linear_94_21" x1="6.81485" y1="21.5419" x2="45.3381" y2="60.05" gradientUnits="userSpaceOnUse">
<stop stop-color="#00B6FF"/>
<stop offset="1" stop-color="#00488B"/>
</linearGradient>
<linearGradient id="paint1_linear_94_21" x1="45.7526" y1="28.9996" x2="60.6361" y2="58.7667" gradientUnits="userSpaceOnUse">
<stop/>
<stop offset="1"/>
</linearGradient>
<linearGradient id="paint2_linear_94_21" x1="38.7299" y1="32.8125" x2="42.3468" y2="42.0969" gradientUnits="userSpaceOnUse">
<stop stop-color="white" stop-opacity="0.27"/>
<stop offset="1" stop-color="white" stop-opacity="0.49"/>
</linearGradient>
<linearGradient id="paint3_linear_94_21" x1="51.5684" y1="32.8125" x2="55.1854" y2="42.0969" gradientUnits="userSpaceOnUse">
<stop stop-color="white" stop-opacity="0.27"/>
<stop offset="1" stop-color="white" stop-opacity="0.49"/>
</linearGradient>
<linearGradient id="paint4_linear_94_21" x1="64.407" y1="32.8125" x2="68.024" y2="42.0969" gradientUnits="userSpaceOnUse">
<stop stop-color="white" stop-opacity="0.27"/>
<stop offset="1" stop-color="white" stop-opacity="0.49"/>
</linearGradient>
</defs>
</svg>
