<svg width="97" height="71" viewBox="0 0 97 71" fill="none" xmlns="http://www.w3.org/2000/svg">
<g clip-path="url(#clip0_93_60)">
<path d="M95.9373 16C95.857 16.1125 95.7927 16.225 95.6963 16.3375L74.338 40.5724C72.0399 43.1759 68.7453 44.6705 65.274 44.6705C61.8027 44.6705 58.5082 43.1759 56.21 40.5724L34.5946 16.0482C34.2089 16.9321 34 17.9124 34 18.941V46.7115C34 53.8792 39.8177 59.6968 46.9853 59.6968H83.5627C90.7303 59.6968 96.548 53.8792 96.548 46.7115V18.941C96.548 17.8964 96.323 16.9 95.9373 16Z" fill="url(#paint0_linear_93_60)"/>
<path d="M61.5154 35.8196C62.5921 37.041 64.0706 37.716 65.7099 37.716C67.333 37.716 68.8276 37.041 69.9044 35.8196L91.2466 11.5847C91.3269 11.5043 91.4073 11.424 91.4876 11.3597C90.893 11.199 90.2502 11.1025 89.5912 11.1025H41.8124C41.1696 11.1025 40.5428 11.199 39.9482 11.3436L61.5154 35.8196Z" fill="url(#paint1_linear_93_60)"/>
</g>
<g filter="url(#filter0_b_93_60)">
<rect x="66.1679" y="5.40088" width="47.6541" height="63.4298" rx="13.9557" transform="rotate(78.2916 66.1679 5.40088)" fill="url(#paint2_linear_93_60)" fill-opacity="0.33"/>
</g>
<line x1="25.1497" y1="30.429" x2="51.6439" y2="24.9383" stroke="url(#paint3_linear_93_60)" stroke-width="3.48892" stroke-linecap="round"/>
<line x1="26.7538" y1="38.1688" x2="40.3501" y2="35.351" stroke="url(#paint4_linear_93_60)" stroke-width="3.48892" stroke-linecap="round"/>
<line x1="28.3579" y1="45.9085" x2="54.8522" y2="40.4178" stroke="url(#paint5_linear_93_60)" stroke-width="3.48892" stroke-linecap="round"/>
<defs>
<filter id="filter0_b_93_60" x="-14.1623" y="-12.8191" width="108.221" height="95.9747" filterUnits="userSpaceOnUse" color-interpolation-filters="sRGB">
<feFlood flood-opacity="0" result="BackgroundImageFix"/>
<feGaussianBlur in="BackgroundImageFix" stdDeviation="10.3795"/>
<feComposite in2="SourceAlpha" operator="in" result="effect1_backgroundBlur_93_60"/>
<feBlend mode="normal" in="SourceGraphic" in2="effect1_backgroundBlur_93_60" result="shape"/>
</filter>
<linearGradient id="paint0_linear_93_60" x1="65.274" y1="16" x2="65.274" y2="59.6968" gradientUnits="userSpaceOnUse">
<stop stop-color="#00B6FF"/>
<stop offset="1" stop-color="#00415B"/>
</linearGradient>
<linearGradient id="paint1_linear_93_60" x1="65.7179" y1="11.1025" x2="65.7179" y2="37.716" gradientUnits="userSpaceOnUse">
<stop stop-color="#004F6F"/>
<stop offset="1" stop-color="#00B6FF"/>
</linearGradient>
<linearGradient id="paint2_linear_93_60" x1="83.1519" y1="9.80668" x2="106.237" y2="63.0671" gradientUnits="userSpaceOnUse">
<stop/>
<stop offset="0.0001"/>
<stop offset="1"/>
</linearGradient>
<linearGradient id="paint3_linear_93_60" x1="20.4628" y1="33.1819" x2="57.8114" y2="25.4416" gradientUnits="userSpaceOnUse">
<stop stop-color="white" stop-opacity="0.72"/>
<stop offset="1" stop-color="white" stop-opacity="0"/>
</linearGradient>
<linearGradient id="paint4_linear_93_60" x1="23.504" y1="40.6238" x2="44.7473" y2="36.2213" gradientUnits="userSpaceOnUse">
<stop stop-color="white" stop-opacity="0.72"/>
<stop offset="1" stop-color="white" stop-opacity="0"/>
</linearGradient>
<linearGradient id="paint5_linear_93_60" x1="23.6712" y1="48.6618" x2="75.0076" y2="37.4886" gradientUnits="userSpaceOnUse">
<stop stop-color="white" stop-opacity="0.31"/>
<stop offset="1" stop-color="white" stop-opacity="0"/>
</linearGradient>
<clipPath id="clip0_93_60">
<rect width="62.548" height="48.1324" fill="white" transform="translate(34.4519 11.1025)"/>
</clipPath>
</defs>
</svg>
