<svg width="83" height="69" viewBox="0 0 83 69" fill="none" xmlns="http://www.w3.org/2000/svg">
<g clip-path="url(#clip0_109_45)">
<path d="M81.9439 55.6678L70.8938 44.6273C73.9046 40.6269 75.7016 35.6658 75.7016 30.2794C75.7016 17.1127 64.9667 6.38721 51.7728 6.38721C38.5789 6.38721 27.8598 17.1127 27.8598 30.2794C27.8598 43.4461 38.5946 54.1716 51.7728 54.1716C56.959 54.1716 61.751 52.5179 65.6761 49.6987L76.7893 60.8022C77.4986 61.5109 78.4286 61.8731 79.3587 61.8731C80.2887 61.8731 81.2188 61.5109 81.9281 60.8022C83.3626 59.3847 83.3626 57.0853 81.9439 55.6678ZM35.1425 30.2794C35.1425 21.1131 42.6143 13.6478 51.7886 13.6478C60.9629 13.6478 68.4347 21.1131 68.4347 30.2794C68.4347 39.4457 60.9629 46.911 51.7886 46.911C42.5985 46.911 35.1425 39.4614 35.1425 30.2794Z" fill="url(#paint0_linear_109_45)"/>
</g>
<g filter="url(#filter0_b_109_45)">
<path d="M42.3593 60.0824C56.6846 55.5473 64.6215 40.2593 60.0869 25.9355C55.5524 11.6117 40.2634 3.67639 25.9382 8.21143C11.6129 12.7465 3.676 28.0346 8.21057 42.3583C12.7451 56.6821 28.0341 64.6174 42.3593 60.0824Z" fill="url(#paint1_linear_109_45)" fill-opacity="0.33"/>
</g>
<line x1="24.8778" y1="25.625" x2="43.4194" y2="25.625" stroke="url(#paint2_linear_109_45)" stroke-width="3.12981" stroke-linecap="round"/>
<line x1="24.8778" y1="33.1162" x2="43.4194" y2="33.1162" stroke="url(#paint3_linear_109_45)" stroke-width="3.12981" stroke-linecap="round"/>
<line x1="24.8778" y1="39.5391" x2="34.4324" y2="39.5391" stroke="url(#paint4_linear_109_45)" stroke-width="3.12981" stroke-linecap="round"/>
<defs>
<filter id="filter0_b_109_45" x="-9.02724" y="-9.02696" width="86.352" height="86.3474" filterUnits="userSpaceOnUse" color-interpolation-filters="sRGB">
<feFlood flood-opacity="0" result="BackgroundImageFix"/>
<feGaussianBlur in="BackgroundImageFix" stdDeviation="7.98101"/>
<feComposite in2="SourceAlpha" operator="in" result="effect1_backgroundBlur_109_45"/>
<feBlend mode="normal" in="SourceGraphic" in2="effect1_backgroundBlur_109_45" result="shape"/>
</filter>
<linearGradient id="paint0_linear_109_45" x1="55.4329" y1="6.38721" x2="55.4329" y2="61.8731" gradientUnits="userSpaceOnUse">
<stop stop-color="#00B6FF"/>
<stop offset="1" stop-color="#003B53"/>
</linearGradient>
<linearGradient id="paint1_linear_109_45" x1="28.697" y1="27.1828" x2="42.6481" y2="55.0848" gradientUnits="userSpaceOnUse">
<stop/>
<stop offset="1"/>
</linearGradient>
<linearGradient id="paint2_linear_109_45" x1="20.8982" y1="27.1899" x2="47.9588" y2="27.1899" gradientUnits="userSpaceOnUse">
<stop stop-color="white" stop-opacity="0.51"/>
<stop offset="1" stop-color="white" stop-opacity="0"/>
</linearGradient>
<linearGradient id="paint3_linear_109_45" x1="20.8982" y1="34.6812" x2="47.9588" y2="34.6812" gradientUnits="userSpaceOnUse">
<stop stop-color="white" stop-opacity="0.51"/>
<stop offset="1" stop-color="white" stop-opacity="0"/>
</linearGradient>
<linearGradient id="paint4_linear_109_45" x1="21.8996" y1="41.104" x2="37.7384" y2="41.104" gradientUnits="userSpaceOnUse">
<stop stop-color="white" stop-opacity="0.51"/>
<stop offset="1" stop-color="white" stop-opacity="0"/>
</linearGradient>
<clipPath id="clip0_109_45">
<rect width="55.1402" height="55.4859" fill="white" transform="translate(27.8597 6.38721)"/>
</clipPath>
</defs>
</svg>
